{"title":"Monsters.Vs.Aliens-AC3-5,1-DVDRip[Eng]2009","uid":5083590,"size":1464003443,"categoryP":"video","categoryS":"movies","magnet":"?xt=urn:btih:9f75a46f6cbf31b5c522773882841ee83d9eef47&amp;dn=Monsters.Vs.Aliens-AC3-5%2C1-DVDRip%5BEng%5D2009&amp;tr=udp%3A%2F%2Ftracker.openbittorrent.com%3A80&amp;tr=udp%3A%2F%2Fopen.demonii.com%3A1337&amp;tr=udp%3A%2F%2Ftracker.coppersurfer.tk%3A6969&amp;tr=udp%3A%2F%2Fexodus.desync.com%3A6969","seeders":0,"leechers":1,"uploader":"FatFreddy31","files":-1,"time":1252535306,"description":" &lt;a href=&quot;http://www.imdb.com/title/tt0892782/&quot; rel=&quot;nofollow&quot; target=&quot;_NEW&quot;&gt;http://www.imdb.com/title/tt0892782/&lt;/a&gt;\n\nUser Rating:6.9/10 - 13,579 votes\n\nAnimation,Action,Family,Sci-Fi\n\nDirectors:Rob Letterman,Conrad Vernon\n\nWith the voices of: Reese Witherspoon/Seth Rogen/Hugh Laurie, and others.\n\nPlot:\nWhen a meteorite from outer space hits a young California woman named Susan Murphy and turns her into a giant monster, she is taken to a secret government compound where she meets a ragtag group of monsters also rounded up over the years. As a last resort, under the guidance of General W.R. Monger, on a desperate order from The President, the motley crew of Monsters is called into action to combat the aliens and save the world from imminent destruction! ...\n\nInfo:\n\nCovers included.\n\nGeneral\nComplete name                    : Monsters.Vs.Aliens-AC3-5,1-DVDRip[Eng]2009.avi\nFormat                           : AVI\nFormat/Info                      : Audio Video Interleave\nFile size                        : 1.36 GiB\nDuration                         : 1h 34mn\nOverall bit rate                 : 2 066 Kbps\nWriting application              : VirtualDubMod 1.5.4.1 (build 2178/release)\nWriting library                  : VirtualDubMod build 2178/release\n\nVideo\nFormat                           : MPEG-4 Visual\nFormat profile                   : Simple@L3\nFormat settings, BVOP            : No\nFormat settings, QPel            : No\nFormat settings, GMC             : No warppoints\nFormat settings, Matrix          : Default\nCodec ID                         : XVID\nCodec ID/Hint                    : XviD\nDuration                         : 1h 34mn\nBit rate                         : 1 609 Kbps\nWidth                            : 720 pixels\nHeight                           : 304 pixels\nDisplay aspect ratio             : 2.35\nFrame rate                       : 23.976 fps\nResolution                       : 24 bits\nColorimetry                      : 4:2:0\nScan type                        : Progressive\nBits/(Pixel*Frame)               : 0.307\nStream size                      : 1.06 GiB (78%)\nWriting library                  : XviD 1.1.2 (UTC 2006-11-01)\n\nAudio\nFormat                           : AC-3\nFormat/Info                      : Audio Coding 3\nCodec ID                         : 2000\nDuration                         : 1h 34mn\nBit rate mode                    : Constant\nBit rate                         : 448 Kbps\nChannel(s)                       : 6 channels\nChannel positions                : Front: L C R, Surround: L R, LFE\nSampling rate                    : 48.0 KHz\nStream size                      : 302 MiB (22%)\nAlignment                        : Split accross interleaves\nInterleave, duration             : 42 ms (1.00 video frame)\nInterleave, preload duration     : 500 ms\n\nEnjoy....","torrent":{"xt":"urn:btih:9f75a46f6cbf31b5c522773882841ee83d9eef47","amp;dn":"Monsters.Vs.Aliens-AC3-5%2C1-DVDRip%5BEng%5D2009","amp;tr":["udp%3A%2F%2Ftracker.openbittorrent.com%3A80","udp%3A%2F%2Fopen.demonii.com%3A1337","udp%3A%2F%2Ftracker.coppersurfer.tk%3A6969","udp%3A%2F%2Fexodus.desync.com%3A6969"],"infoHash":"9f75a46f6cbf31b5c522773882841ee83d9eef47","infoHashBuffer":{"type":"Buffer","data":[159,117,164,111,108,191,49,181,197,34,119,56,130,132,30,232,61,158,239,71]},"announce":[],"urlList":[]}}